HIERARCHY
ROOT Hips
{
   OFFSET 0.00000 0.00000 0.00000
   CHANNELS 6 Xposition Yposition Zposition Zrotation Xrotation Yrotation
   JOINT Spine
   {
      OFFSET 0.000000 11.890501 0.000000
      CHANNELS 3 Zrotation Xrotation Yrotation
      JOINT Spine1
      {
         OFFSET -0.000000 25.657401 0.127660
         CHANNELS 3 Zrotation Xrotation Yrotation
         JOINT HEad
         {
            OFFSET 0.000000 8.734161 0.011340
            CHANNELS 3 Zrotation Xrotation Yrotation
            End Site
            {
               OFFSET -0.290000 12.774200 2.513950
            }
         }
         JOINT LeftShoulder1
         {
            OFFSET 8.990000 -0.362250 -0.220000
            CHANNELS 3 Zrotation Xrotation Yrotation
            JOINT LeftArm
            {
               OFFSET 10.282700 -0.003380 0.322120
               CHANNELS 3 Zrotation Xrotation Yrotation
               JOINT LeftForeArm
               {
                  OFFSET 32.766900 0.099140 -1.424340
                  CHANNELS 3 Zrotation Xrotation Yrotation
                  JOINT LeftHand
                  {
                     OFFSET 27.564301 0.085360 1.022160
                     CHANNELS 3 Zrotation Xrotation Yrotation
                     End Site
                     {
                        OFFSET 16.744301 -0.600000 1.502910
                     }
                  }
               }
            }
         }
         JOINT RightShoulder
         {
            OFFSET -8.990000 -0.362250 -0.220000
            CHANNELS 3 Zrotation Xrotation Yrotation
            JOINT RightArm
            {
               OFFSET -10.282700 -0.003380 0.322120
               CHANNELS 3 Zrotation Xrotation Yrotation
               JOINT RightForeArm
               {
                  OFFSET -32.897098 0.099140 -1.424340
                  CHANNELS 3 Zrotation Xrotation Yrotation
                  JOINT RightHand
                  {
                     OFFSET -27.492101 0.085360 1.022160
                     CHANNELS 3 Zrotation Xrotation Yrotation
                     End Site
                     {
                        OFFSET -16.631201 -0.600000 1.502910
                     }
                  }
               }
            }
         }
      }
   }
   JOINT LeftUpLeg
   {
      OFFSET 8.945800 -8.667070 0.101650
      CHANNELS 3 Zrotation Xrotation Yrotation
      JOINT LeftLeg
      {
         OFFSET 0.000000 -44.422697 1.372700
         CHANNELS 3 Zrotation Xrotation Yrotation
         JOINT LeftFoot
         {
            OFFSET -0.253550 -42.092399 -1.460590
            CHANNELS 3 Zrotation Xrotation Yrotation
            JOINT LeftToes
            {
               OFFSET -0.040000 -4.415090 8.499099
               CHANNELS 3 Zrotation Xrotation Yrotation
               End Site
               {
                  OFFSET 0.080000 -0.047450 9.779790
               }
            }
         }
      }
   }
   JOINT RightUpLeg
   {
      OFFSET -8.945800 -8.667070 0.101650
      CHANNELS 3 Zrotation Xrotation Yrotation
      JOINT RightLeg
      {
         OFFSET 0.000000 -44.422697 1.372700
         CHANNELS 3 Zrotation Xrotation Yrotation
         JOINT RightFoot
         {
            OFFSET 0.253550 -42.092399 -1.460590
            CHANNELS 3 Zrotation Xrotation Yrotation
            JOINT RightToes
            {
               OFFSET 0.040000 -4.415090 8.499099
               CHANNELS 3 Zrotation Xrotation Yrotation
               End Site
               {
                  OFFSET -0.080000 -0.137450 9.779790
               }
            }
         }
      }
   }
}
MOTION
Frames: 7
Frame Time: 0.016670
27.150776 88.436392 -12.918987 10.618600 0.072497 117.672917 3.884805 17.190210 -14.953347 0.026328 -0.319554 2.158429 -22.976753 7.329876 62.539118 -4.645953 9.533508 -0.279558 -7.983966 -60.493838 -22.445625 6.877000 15.214905 -97.726968 -0.196469 23.993143 52.170190 8.750397 21.893295 8.972242 89.870967 -2.368666 97.575174 6.132492 56.278167 94.860672 -2.213898 11.236616 -3.087213 43.003551 -22.545056 6.915892 -21.415775 34.155017 35.599595 7.743021 -6.488233 -0.484198 5.677213 20.434370 -5.978979 -16.635018 -16.863556 5.222120 11.382686 57.669254 -13.350393 3.355278 -1.416382 -1.100918 0.226679 -1.813191 -16.547571
26.524655 88.028268 -13.741805 10.891548 -0.082546 117.221660 3.701484 18.079524 -16.053188 0.111140 -0.420981 2.049518 -22.595598 6.198448 62.556378 -4.461717 9.233972 0.685698 1.948187 -51.517832 -17.503318 8.732667 9.907276 -82.207344 3.752773 24.225544 38.668829 8.084420 21.245297 8.556408 87.551776 -5.055187 95.766533 4.278722 52.277817 96.416733 -1.812433 6.000239 6.509319 42.504971 -21.719064 7.305170 -21.833232 34.913810 32.758048 11.554287 -6.603480 -0.219042 -12.459058 8.245841 -6.378849 -16.759824 -17.873179 5.454249 13.897363 57.881318 -15.834846 2.676038 -1.427876 -1.161227 -2.598160 -8.118400 -11.570194
25.833835 87.661646 -14.591480 11.095332 -0.071758 116.553941 3.783623 18.865853 -16.845514 -0.167356 -0.307192 1.992575 -22.134872 5.355272 62.359641 -4.338769 9.339315 1.488415 8.526765 -41.737524 -17.559457 9.461901 5.319741 -63.956197 -0.994437 20.547902 51.881396 7.393260 20.797945 8.441389 86.381792 -6.119561 95.073849 3.543121 49.618736 97.292821 -2.492084 5.796997 3.259683 40.771390 -20.595097 8.829804 -20.390471 34.990335 28.925356 15.182857 -6.413134 0.067103 -10.592902 11.619164 -1.486924 -16.908120 -18.857695 5.674735 16.328675 58.185432 -17.949319 2.303280 -1.451004 -1.152924 -1.559347 -4.277117 -13.142270
25.091955 87.373770 -15.464984 11.260099 0.040908 116.054162 3.642137 19.362456 -17.265275 -0.218664 -0.247336 2.078333 -21.446714 4.851481 61.952985 -4.115805 9.495620 2.178941 13.408063 -33.064198 -21.884667 8.036626 2.058698 -43.417231 11.308848 20.529913 29.912964 6.737529 20.369926 8.333021 86.305970 -6.547992 95.154637 2.919743 47.601210 97.226992 -2.761065 3.675902 6.406921 39.384189 -19.554391 10.510754 -18.377208 35.064344 25.492715 18.719156 -6.141783 0.511197 -30.625547 -1.808811 -6.657927 -16.982560 -19.824634 5.822633 18.604761 58.636710 -19.850181 2.229180 -1.430288 -1.202139 -2.611143 -6.347584 -11.776886
24.330818 87.114152 -16.368971 11.527026 0.164865 115.445661 3.636827 19.683902 -17.339730 -0.121990 0.102347 2.301550 -20.703591 4.654163 61.370479 -3.616706 9.726206 3.230266 16.554907 -27.246562 -29.258942 3.840532 -0.406256 -22.323030 -2.651311 10.873140 27.404447 5.944816 20.286902 8.205812 86.433899 -6.642754 95.513802 2.720912 46.843585 97.552450 -2.607589 4.400358 2.938868 37.763696 -18.638862 11.993565 -16.156777 34.680094 22.073592 22.016987 -5.988453 0.692260 -30.202007 1.406385 -1.083977 -16.911098 -20.769296 5.885161 20.750058 59.171766 -21.446430 2.382859 -1.388761 -1.244849 -2.655965 -5.844312 -11.840072
23.598504 86.889905 -17.279416 11.786256 0.311769 114.825548 3.632386 19.799547 -17.378597 -0.209371 0.387116 2.388353 -20.193372 4.464229 60.706646 -3.138388 9.923297 3.492489 18.501656 -24.363553 -34.174923 -0.758651 -6.506747 -5.503525 12.410393 12.434997 12.949017 5.365174 20.593444 8.017534 86.974802 -6.519631 95.818880 2.733420 46.687137 98.263698 -1.354779 3.961584 4.295683 36.230414 -17.720330 13.455447 -13.726854 34.117119 19.078494 25.144650 -5.808487 0.928324 -34.540844 -0.712759 -2.039226 -16.797032 -21.578265 5.852935 22.678602 59.612368 -22.782999 2.703655 -1.357533 -1.291904 -3.171319 -6.620547 -11.449376
22.922852 86.680697 -18.197970 11.942704 0.206264 114.293742 3.465235 19.948782 -17.352985 -0.073849 0.443505 2.373427 -19.932442 4.263311 59.967893 -2.335021 9.806343 3.304052 19.349892 -23.534726 -37.458117 -2.178386 -16.027483 6.275209 3.746183 2.480046 -0.771687 4.432278 21.245068 7.864905 87.164122 -6.307988 95.926585 2.586375 47.577366 99.038740 0.562794 5.084687 2.096679 34.923334 -17.074124 14.935703 -11.335759 33.447716 16.462882 28.182091 -5.817101 1.209231 -36.972535 -0.440870 -0.508043 -16.406051 -22.424445 5.767298 24.307009 59.966991 -23.894706 3.025636 -1.412025 -1.343305 -3.316477 -6.446583 -11.522061
